:SAMPLES-PER-SECOND 30
:FRAME-RANGE 1-2009
:FULLY-SPECIFIED
:DEGREES
942
root  10.5184 38.4568 -31.144 2.26257 -55.718 -2.74573
RightUpLeg  15.4605 -26.2967 -12.9159
RightLeg  19.641 -7.23088 -3.06413
RightFoot  -15.3422 0.901851 28.2868
RightToes  4.71047e-010 1.2921e-014 -6.02303e-014
Spine  7.02531 1.54526 1.99572
Spine1  -1.85208 2.23885 -3.88392
HEad  1.3605 36.2632 -4.0112
LeftShoulder1  1.19469 0.410142 -32.5557
LeftArm  17.872 18.4549 -27.5739
LeftForeArm  -3.14899 -11.0669 -15.116
LeftHand  0.272086 1.31031 -8.05665
RightShoulder  5.50344 6.1676 49.8682
RightArm  26.3878 -2.33267 11.0586
RightForeArm  6.22116 11.948 13.6216
RightHand  0.170571 -1.49648 5.3971
LeftUpLeg  -21.1644 9.64983 -8.78691
LeftLeg  13.8474 24.8786 2.54349
LeftFoot  -1.44602 -1.03447 12.0029
LeftToes  2.15783e-011 -7.56106e-012 -8.20802e-012
943
root  9.62644 38.0676 -30.5051 -0.053894 -52.9572 -0.528015
RightUpLeg  11.1193 -21.8013 -13.486
RightLeg  32.812 -7.95094 -5.72593
RightFoot  -12.4658 0.283259 36.4312
RightToes  4.71047e-010 1.2921e-014 -6.02303e-014
Spine  7.63476 1.57496 -0.945554
Spine1  -2.17092 1.74276 -3.05009
HEad  2.60406 34.5976 -3.02001
LeftShoulder1  1.24602 0.366123 -33.6431
LeftArm  17.48 17.4864 -27.0478
LeftForeArm  -1.04263 -9.71209 -15.8462
LeftHand  0.268649 0.907007 -7.16856
RightShoulder  5.34007 5.92783 49.6214
RightArm  23.2401 -2.44505 12.0878
RightForeArm  9.42573 11.1618 13.7215
RightHand  0.229601 -0.990616 6.25975
LeftUpLeg  -22.598 13.8315 -13.1134
LeftLeg  20.1571 17.3002 6.32207
LeftFoot  -3.90253 -0.80219 12.6472
LeftToes  2.15783e-011 -7.56106e-012 -8.20802e-012
944
root  8.80623 38.0843 -29.7862 -1.08223 -51.1531 0.0518494
RightUpLeg  4.22174 -15.6572 -12.3102
RightLeg  46.7365 -7.24511 -8.48197
RightFoot  -1.43549 -2.36778 26.7461
RightToes  4.71047e-010 1.2921e-014 -6.02303e-014
Spine  8.06236 1.65246 -0.96337
Spine1  -2.09789 1.97234 -4.41176
HEad  3.32395 32.8965 -2.45646
LeftShoulder1  1.29898 0.221877 -33.515
LeftArm  15.6085 16.4748 -27.5041
LeftForeArm  0.821272 -9.04375 -15.9969
LeftHand  0.283758 0.658023 -7.12345
RightShoulder  5.41912 6.0607 49.6552
RightArm  26.7823 -3.30133 13.1355
RightForeArm  4.4598 14.1309 11.9598
RightHand  0.248025 -1.0972 6.93608
LeftUpLeg  -20.7 15.4484 -13.5947
LeftLeg  21.4273 14.6495 5.69676
LeftFoot  -6.17517 -0.552407 13.0114
LeftToes  2.15783e-011 -7.56106e-012 -8.20802e-012
945
root  8.03693 38.0469 -29.1342 -2.38614 -49.0527 1.56581
RightUpLeg  -3.44657 -10.1103 -11.6397
RightLeg  57.83 -4.69463 -8.44389
RightFoot  12.0945 -2.32393 11.5744
RightToes  4.71047e-010 1.2921e-014 -6.02303e-014
Spine  8.2312 1.43706 -2.79986
Spine1  -1.95651 1.53171 -4.56334
HEad  4.15433 32.3787 -2.53657
LeftShoulder1  1.26288 0.339603 -33.8413
LeftArm  19.1387 15.3842 -27.3732
LeftForeArm  -2.35652 -10.9639 -15.2144
LeftHand  0.303671 0.560142 -7.44525
RightShoulder  5.77789 6.63376 49.944
RightArm  32.1191 -3.07955 13.6959
RightForeArm  -0.790332 17.0687 9.90731
RightHand  0.2543 -1.16254 7.09955
LeftUpLeg  -19.056 15.7918 -14.2349
LeftLeg  22.5927 12.9193 4.75456
LeftFoot  -8.49932 -0.256829 12.3706
LeftToes  2.15783e-011 -7.56106e-012 -8.20802e-012
946
root  7.33078 37.9847 -28.4678 -3.34308 -45.8259 2.42903
RightUpLeg  -7.96182 -5.82339 -11.8087
RightLeg  64.162 -1.33303 -3.59024
RightFoot  8.34971 -2.44857 14.3742
RightToes  4.71047e-010 1.2921e-014 -6.02303e-014
Spine  8.71551 0.885872 -4.40024
Spine1  -1.81132 0.579569 -4.40788
HEad  5.09339 31.5988 -2.6725
LeftShoulder1  1.32755 0.232259 -34.5007
LeftArm  25.3117 13.1928 -27.1477
LeftForeArm  -4.98201 -12.7159 -14.4624
LeftHand  0.301023 0.332588 -7.01414
RightShoulder  5.76131 6.70709 49.4455
RightArm  35.6318 -2.76299 14.6858
RightForeArm  -2.32066 19.4871 7.72769
RightHand  0.25054 -1.02913 6.88307
LeftUpLeg  -17.0803 13.035 -14.4558
LeftLeg  23.9145 12.7209 4.61053
LeftFoot  -10.4753 -0.0229428 11.3601
LeftToes  2.15783e-011 -7.56106e-012 -8.20802e-012
